<svg width="1270" height="1340" xmlns="http://www.w3.org/2000/svg" xmlns:xlink="http://www.w3.org/1999/xlink" xml:space="preserve" overflow="hidden"><defs><clipPath id="clip0"><rect x="1818" y="359" width="1270" height="1340"/></clipPath></defs><g clip-path="url(#clip0)" transform="translate(-1818 -359)"><path d="M1841.25 1255.65 1913.01 435.371C1914.22 421.651 1921.79 408.488 1935.73 395.882 1949.67 383.276 1963.5 377.574 1977.22 378.774L2740.17 445.524C2754.87 446.81 2768.01 454.625 2779.59 468.97 2791.18 483.315 2796.33 497.838 2795.04 512.538L2749.25 1035.87C2748.05 1049.59 2740.48 1062.76 2726.54 1075.36 2712.6 1087.97 2698.28 1093.63 2683.58 1092.34L2097.03 1041.03ZM2131.58 1340.31C2117.86 1339.11 2104.99 1331.07 2092.96 1316.19 2080.93 1301.31 2075.51 1287.01 2076.71 1273.29L2089.32 1129.23 2824.34 1193.53 2868.07 693.72 3015.07 706.581C3028.79 707.781 3041.42 715.798 3052.96 730.634 3064.5 745.47 3069.63 760.237 3068.34 774.937L2991.69 1651.08 2778.4 1396.9Z" stroke="#C9C9C9" stroke-width="38.0435" stroke-miterlimit="8" fill="#000000" fill-rule="evenodd" fill-opacity="0.94902"/></g></svg>